<svg width="489" height="222" viewBox="0 0 489 222" fill="none" xmlns="http://www.w3.org/2000/svg">
<g filter="url(#filter0_d_2002_5855)">
<path d="M226.474 160H122.026V137.012L175.366 82.1102C187.269 69.4633 193.22 59.0482 193.22 50.8649C193.22 44.7647 191.286 39.8547 187.418 36.1351C183.698 32.4154 178.862 30.5556 172.911 30.5556C161.008 30.5556 152.304 36.6558 146.799 48.8563L120.91 33.6801C125.671 23.1162 132.59 15.0073 141.666 9.35345C150.89 3.55076 161.157 0.64942 172.465 0.64942C186.599 0.64942 198.725 5.11302 208.843 14.0402C218.96 22.8186 224.019 34.7216 224.019 49.749C224.019 65.9668 215.464 82.6309 198.353 99.7414L167.778 130.317H226.474V160ZM233.75 18.2806L274.815 3.77394H301.597V160H270.798V36.3582L241.338 44.6159L233.75 18.2806ZM392.145 63.8094C384.855 70.8024 375.927 74.2989 365.364 74.2989C354.651 74.2989 345.649 70.728 338.359 63.5862C331.217 56.4444 327.646 47.7404 327.646 37.4741C327.646 27.2079 331.217 18.5038 338.359 11.3621C345.798 4.2203 354.8 0.64942 365.364 0.64942C376.076 0.64942 385.003 4.2203 392.145 11.3621C399.287 18.2063 402.858 26.9103 402.858 37.4741C402.858 47.8892 399.287 56.6676 392.145 63.8094ZM356.883 144.154L343.492 136.343L445.262 23.1906L458.876 30.7787L356.883 144.154ZM355.097 47.7404C357.776 50.4186 361.123 51.7577 365.14 51.7577C369.158 51.7577 372.505 50.4186 375.184 47.7404C377.862 44.9135 379.201 41.4914 379.201 37.4741C379.201 33.4569 377.862 30.1092 375.184 27.431C372.505 24.7529 369.158 23.4138 365.14 23.4138C361.123 23.4138 357.776 24.7529 355.097 27.431C352.568 30.1092 351.303 33.4569 351.303 37.4741C351.303 41.4914 352.568 44.9135 355.097 47.7404ZM478.293 125.853C478.293 136.12 474.722 144.824 467.58 151.966C460.438 159.107 451.511 162.678 440.798 162.678C430.086 162.678 421.159 159.107 414.017 151.966C406.875 144.824 403.304 136.12 403.304 125.853C403.304 115.587 406.875 106.883 414.017 99.7414C421.159 92.5996 430.086 89.0287 440.798 89.0287C451.511 89.0287 460.438 92.5996 467.58 99.7414C474.722 106.883 478.293 115.587 478.293 125.853ZM450.618 136.12C453.297 133.293 454.636 129.871 454.636 125.853C454.636 121.836 453.297 118.489 450.618 115.81C448.089 112.983 444.816 111.57 440.798 111.57C436.781 111.57 433.434 112.983 430.755 115.81C428.226 118.489 426.961 121.836 426.961 125.853C426.961 129.871 428.226 133.293 430.755 136.12C433.434 138.798 436.781 140.137 440.798 140.137C444.816 140.137 448.089 138.798 450.618 136.12Z" fill="#3889F2"/>
</g>
<rect y="164" width="489" height="58" rx="3" fill="white"/>
<path d="M17.6395 178.574H28.2382C30.9454 178.574 33.2466 179.495 35.1416 181.336C37.0096 183.177 37.9435 185.437 37.9435 188.117C37.9435 190.797 37.0096 193.058 35.1416 194.899C33.2466 196.74 30.9454 197.66 28.2382 197.66H23.2434V207H17.6395V178.574ZM23.2434 192.422H28.2382C29.4294 192.422 30.4175 192.016 31.2026 191.203C31.9877 190.364 32.3802 189.335 32.3802 188.117C32.3802 186.872 31.9877 185.843 31.2026 185.031C30.4175 184.219 29.4294 183.813 28.2382 183.813H23.2434V192.422ZM63.236 207H57.1854L51.4597 197.132H47.1958V207H41.5919V178.574H52.9622C55.5882 178.574 57.8216 179.495 59.6625 181.336C61.5034 183.177 62.4239 185.397 62.4239 187.995C62.4239 189.755 61.923 191.393 60.9214 192.909C59.9197 194.398 58.5932 195.521 56.9418 196.279L63.236 207ZM52.9622 183.813H47.1958V192.219H52.9622C54.018 192.219 54.9249 191.813 55.6829 191C56.4409 190.161 56.8199 189.16 56.8199 187.995C56.8199 186.831 56.4409 185.843 55.6829 185.031C54.9249 184.219 54.018 183.813 52.9622 183.813ZM72.1396 195.264V201.64H84.119V207H66.5357V178.574H83.916V183.935H72.1396V189.985H82.9008V195.264H72.1396ZM110.119 178.574H115.886V207H110.322V188.564L102.323 201.762H101.673L93.673 188.605V207H88.0691V178.574H93.8354L101.998 192.016L110.119 178.574ZM121.182 207V178.574H126.786V207H121.182ZM142.647 207.569C139.479 207.569 136.88 206.675 134.85 204.888C132.819 203.102 131.804 200.706 131.804 197.701V178.574H137.368V197.254C137.368 198.77 137.801 199.961 138.667 200.828C139.56 201.667 140.887 202.086 142.647 202.086C144.406 202.086 145.719 201.667 146.586 200.828C147.479 199.961 147.926 198.77 147.926 197.254V178.574H153.53V197.701C153.53 200.706 152.514 203.102 150.484 204.888C148.454 206.675 145.841 207.569 142.647 207.569ZM180.628 178.574H186.395V207H180.831V188.564L172.831 201.762H172.182L164.182 188.605V207H158.578V178.574H164.344L172.507 192.016L180.628 178.574ZM218.005 189.863V178.574H223.568V207H218.005V195.224H207.447V207H201.843V178.574H207.447V189.863H218.005ZM252.767 203.305C249.897 206.147 246.405 207.569 242.29 207.569C238.175 207.569 234.683 206.147 231.813 203.305C228.971 200.408 227.549 196.902 227.549 192.787C227.549 188.645 228.971 185.153 231.813 182.31C234.683 179.441 238.175 178.006 242.29 178.006C246.405 178.006 249.897 179.441 252.767 182.31C255.637 185.153 257.072 188.645 257.072 192.787C257.072 196.929 255.637 200.435 252.767 203.305ZM235.752 199.488C237.485 201.22 239.664 202.086 242.29 202.086C244.916 202.086 247.096 201.22 248.828 199.488C250.588 197.728 251.468 195.494 251.468 192.787C251.468 190.08 250.588 187.847 248.828 186.087C247.068 184.327 244.889 183.447 242.29 183.447C239.691 183.447 237.512 184.327 235.752 186.087C233.993 187.847 233.113 190.08 233.113 192.787C233.113 195.494 233.993 197.728 235.752 199.488ZM277.456 195.914V178.574H283.06V207H278.797L266.614 189.62V207H261.01V178.574H265.274L277.456 195.914ZM312.698 207H306.607L304.901 201.883H293.572L291.866 207H285.816L295.765 178.574H302.709L312.698 207ZM299.257 185.031L295.359 196.645H303.155L299.257 185.031ZM315.458 178.574H326.747C330.646 178.574 333.894 179.942 336.493 182.676C339.119 185.383 340.432 188.753 340.432 192.787C340.432 196.821 339.119 200.191 336.493 202.899C333.894 205.633 330.646 207 326.747 207H315.458V178.574ZM321.062 201.64H326.747C329.211 201.64 331.214 200.828 332.757 199.203C334.3 197.525 335.072 195.386 335.072 192.787C335.072 190.161 334.3 188.036 332.757 186.412C331.214 184.76 329.211 183.935 326.747 183.935H321.062V201.64ZM368.326 203.305C365.456 206.147 361.964 207.569 357.849 207.569C353.734 207.569 350.241 206.147 347.372 203.305C344.529 200.408 343.108 196.902 343.108 192.787C343.108 188.645 344.529 185.153 347.372 182.31C350.241 179.441 353.734 178.006 357.849 178.006C361.964 178.006 365.456 179.441 368.326 182.31C371.195 185.153 372.63 188.645 372.63 192.787C372.63 196.929 371.195 200.435 368.326 203.305ZM351.311 199.488C353.043 201.22 355.223 202.086 357.849 202.086C360.475 202.086 362.654 201.22 364.387 199.488C366.146 197.728 367.026 195.494 367.026 192.787C367.026 190.08 366.146 187.847 364.387 186.087C362.627 184.327 360.448 183.447 357.849 183.447C355.25 183.447 353.07 184.327 351.311 186.087C349.551 187.847 348.671 190.08 348.671 192.787C348.671 195.494 349.551 197.728 351.311 199.488ZM393.015 195.914V178.574H398.619V207H394.355L382.173 189.62V207H376.569V178.574H380.833L393.015 195.914ZM409.496 178.574V201.64H420.338V207H403.892V178.574H409.496ZM448.68 207H442.588L440.883 201.883H429.553L427.848 207H421.797L431.746 178.574H438.69L448.68 207ZM435.238 185.031L431.34 196.645H439.137L435.238 185.031ZM473.084 207H467.033L461.308 197.132H457.044V207H451.44V178.574H462.81C465.436 178.574 467.669 179.495 469.51 181.336C471.351 183.177 472.272 185.397 472.272 187.995C472.272 189.755 471.771 191.393 470.769 192.909C469.768 194.398 468.441 195.521 466.79 196.279L473.084 207ZM462.81 183.813H457.044V192.219H462.81C463.866 192.219 464.773 191.813 465.531 191C466.289 190.161 466.668 189.16 466.668 187.995C466.668 186.831 466.289 185.843 465.531 185.031C464.773 184.219 463.866 183.813 462.81 183.813Z" fill="#3889F2"/>
<defs>
<filter id="filter0_d_2002_5855" x="120.91" y="0.649414" width="361.383" height="166.029" filterUnits="userSpaceOnUse" color-interpolation-filters="sRGB">
<feFlood flood-opacity="0" result="BackgroundImageFix"/>
<feColorMatrix in="SourceAlpha" type="matrix" values="0 0 0 0 0 0 0 0 0 0 0 0 0 0 0 0 0 0 127 0" result="hardAlpha"/>
<feOffset dx="4" dy="4"/>
<feComposite in2="hardAlpha" operator="out"/>
<feColorMatrix type="matrix" values="0 0 0 0 0 0 0 0 0 0.292137 0 0 0 0 0.670833 0 0 0 1 0"/>
<feBlend mode="normal" in2="BackgroundImageFix" result="effect1_dropShadow_2002_5855"/>
<feBlend mode="normal" in="SourceGraphic" in2="effect1_dropShadow_2002_5855" result="shape"/>
</filter>
</defs>
</svg>
