<svg width="159" height="162" viewBox="0 0 159 162" fill="none" xmlns="http://www.w3.org/2000/svg">
<circle cx="79.284" cy="81.7379" r="79.284" fill="#3889F2"/>
<path d="M58.88 106.586C58.6196 106.135 58.5491 105.599 58.6839 105.097C58.8186 104.594 59.1477 104.165 59.5986 103.904L92.9005 84.6775L73.3405 79.4382C73.0913 79.3714 72.8577 79.2562 72.6531 79.0992C72.4484 78.9422 72.2767 78.7464 72.1477 78.5229C72.0187 78.2995 71.935 78.0529 71.9013 77.7972C71.8677 77.5414 71.8847 77.2815 71.9515 77.0323C72.0182 76.7831 72.1334 76.5496 72.2905 76.3449C72.4475 76.1402 72.6433 75.9685 72.8667 75.8395C73.0901 75.7105 73.3367 75.6268 73.5925 75.5932C73.8483 75.5595 74.1082 75.5765 74.3573 75.6433L98.4946 82.1109C98.7439 82.1775 98.9776 82.2926 99.1823 82.4496C99.387 82.6066 99.5588 82.8025 99.6878 83.0259C99.8168 83.2493 99.9005 83.496 99.9341 83.7518C99.9677 84.0076 99.9506 84.2676 99.8837 84.5167L93.4161 108.654C93.2813 109.157 92.952 109.586 92.5008 109.847C92.0497 110.107 91.5135 110.178 91.0102 110.043C90.507 109.908 90.0779 109.579 89.8174 109.128C89.5569 108.677 89.4863 108.14 89.6212 107.637L94.8638 88.078L61.5619 107.305C61.111 107.565 60.5751 107.636 60.0721 107.501C59.5692 107.366 59.1403 107.037 58.88 106.586Z" fill="white"/>
<path d="M17.7906 76.4305L25.4589 69.7207L25.5623 72.7314L18.4525 79.048L25.7705 78.7968L25.8573 81.324L10.4741 81.8522L10.3873 79.3249L17.2878 79.088L10.1866 73.4793L10.0832 70.4686L17.7906 76.4305Z" fill="white"/>
<path d="M19.6305 53.5906L18.1324 53.1512L18.8007 50.8724L29.3508 53.9665L28.6825 56.2454L27.1633 55.7998C28.1073 57.0086 28.3441 58.4147 27.8738 60.0184C27.4489 61.4672 26.5513 62.5483 25.1811 63.2617C23.8108 63.975 22.345 64.1027 20.7836 63.6448C19.2221 63.1868 18.0575 62.2877 17.2896 60.9472C16.5217 59.6068 16.3502 58.2122 16.7751 56.7633C17.2454 55.1597 18.1972 54.1021 19.6305 53.5906ZM24.1569 61.1281C24.9756 60.6807 25.5252 59.9788 25.8057 59.0223C26.0862 58.0657 26.0028 57.1781 25.5555 56.3594C25.0941 55.5367 24.378 54.9829 23.4074 54.6983C22.4368 54.4136 21.5422 54.495 20.7235 54.9423C19.8908 55.3855 19.3342 56.0854 19.0536 57.042C18.7731 57.9985 18.8635 58.8882 19.325 59.711C19.7723 60.5296 20.4813 61.0813 21.4519 61.3659C22.4084 61.6465 23.3101 61.5672 24.1569 61.1281Z" fill="white"/>
<path d="M26.3645 36.9937L28.2993 38.2128L26.8457 40.5197L31.3106 43.3331C31.6951 43.5753 32.0288 43.6644 32.3119 43.6001C32.5825 43.5281 32.8357 43.3325 33.0715 43.0132C33.3028 42.6738 33.5662 42.242 33.8618 41.7178L35.6664 42.8549C34.8833 44.5101 34.0576 45.5318 33.1891 45.9202C32.3082 46.3008 31.26 46.1081 30.0445 45.3423L25.5797 42.5289L24.5012 44.2404L22.5664 43.0212L23.6449 41.3097L21.6357 40.0437L22.3064 37.6593L24.9109 39.3005L26.3645 36.9937Z" fill="white"/>
<path d="M44.2063 27.5231L37.7355 33.4154C38.4182 33.904 39.1402 34.109 39.9014 34.0305C40.6735 33.9421 41.4009 33.587 42.0838 32.9652C43.0051 32.1262 43.3982 31.1536 43.2632 30.0473L45.48 29.5751C45.7646 31.4771 45.1157 33.1485 43.5332 34.5895C42.2217 35.7838 40.7889 36.3549 39.2347 36.303C37.6816 36.2303 36.3424 35.5761 35.2172 34.3405C34.1217 33.1374 33.5999 31.7587 33.6519 30.2046C33.693 28.6604 34.3477 27.3108 35.6158 26.1561C36.7973 25.0803 38.1527 24.6093 39.6823 24.7431C41.2118 24.8769 42.5194 25.54 43.6051 26.7323C43.8025 26.9491 44.0029 27.2127 44.2063 27.5231ZM36.4164 31.9995L41.1964 27.6469C40.4948 27.116 39.7748 26.8695 39.0362 26.9076C38.3085 26.9358 37.6466 27.2214 37.0504 27.7642C36.4001 28.3564 36.021 29.0287 35.9131 29.7812C35.8053 30.5337 35.973 31.2731 36.4164 31.9995Z" fill="white"/>
<path d="M56.6564 15.2262L55.9944 13.7398L58.1235 12.7914L62.3912 22.3727C63.0711 23.8993 63.0909 25.2947 62.4504 26.5589C61.8233 27.8171 60.7866 28.7683 59.3404 29.4125C57.0237 30.4444 55.076 30.341 53.4973 29.1024L54.8822 27.1857C55.8637 27.9842 57.0709 28.0643 58.5038 27.4261C59.4411 27.0086 60.0606 26.4358 60.3622 25.7077C60.6831 24.9871 60.6497 24.1915 60.262 23.3211L59.7162 22.0958C59.4183 23.6247 58.5127 24.7261 56.9996 25.4001C55.5935 26.0264 54.1713 26.058 52.7331 25.4951C51.3022 24.9128 50.2677 23.9052 49.6295 22.4724C48.9853 21.0261 48.9313 19.5899 49.4675 18.1635C49.9917 16.7104 50.9635 15.6677 52.383 15.0354C53.8962 14.3614 55.3207 14.425 56.6564 15.2262ZM53.7048 23.3532C54.5891 23.6814 55.4866 23.6427 56.3972 23.2372C57.3078 22.8316 57.9302 22.1933 58.2644 21.3223C58.612 20.4453 58.586 19.5582 58.1863 18.661C57.7867 17.7638 57.1447 17.1511 56.2603 16.8229C55.3893 16.4887 54.4985 16.5244 53.5879 16.93C52.6773 17.3356 52.0482 17.9768 51.7007 18.8538C51.3665 19.7248 51.3992 20.6089 51.7988 21.5061C52.1984 22.4033 52.8338 23.019 53.7048 23.3532Z" fill="white"/>
<path d="M78.1223 18.8516C77.1243 20.0708 75.8157 20.7611 74.1966 20.9226C72.5774 21.0842 71.1583 20.6659 69.9391 19.6679C68.7038 18.6568 68.0062 17.3489 67.8461 15.7444C67.686 14.1398 68.1116 12.7199 69.1227 11.4847C70.1207 10.2655 71.4293 9.5751 73.0484 9.41357C74.6676 9.25204 76.0868 9.67028 77.306 10.6683C78.5412 11.6794 79.2389 12.9873 79.3989 14.5918C79.559 16.1964 79.1335 17.6163 78.1223 18.8516ZM70.2092 15.5086C70.3081 16.5005 70.7186 17.292 71.4405 17.8829C72.1623 18.4738 73.0047 18.7213 73.9674 18.6252C74.9301 18.5292 75.707 18.1202 76.2979 17.3983C76.8888 16.6764 77.1348 15.8195 77.0359 14.8276C76.9369 13.8357 76.5265 13.0443 75.8046 12.4533C75.0827 11.8624 74.2404 11.615 73.2776 11.711C72.3149 11.8071 71.5381 12.216 70.9471 12.9379C70.3562 13.6598 70.1102 14.5167 70.2092 15.5086Z" fill="white"/>
<path d="M90.0287 10.2051L89.7283 12.0276C90.5431 10.7802 91.7677 10.2912 93.4021 10.5606L92.9837 13.099C92.111 12.8957 91.2941 12.984 90.5333 13.3637C89.7892 13.7314 89.3254 14.4721 89.1419 15.5858L88.2407 21.0533L85.8975 20.667L87.6855 9.81892L90.0287 10.2051Z" fill="white"/>
<path d="M103.767 11.768C103.391 11.941 103.01 11.9561 102.625 11.8134C102.24 11.6706 101.954 11.4083 101.768 11.0264C101.6 10.6358 101.587 10.2481 101.73 9.86324C101.873 9.47839 102.132 9.19948 102.509 9.02653C102.891 8.83983 103.281 8.82039 103.68 8.9682C104.079 9.11602 104.362 9.38521 104.53 9.77579C104.703 10.1526 104.718 10.5335 104.575 10.9183C104.432 11.3032 104.163 11.5864 103.767 11.768ZM99.3421 24.081L97.1154 23.2553L100.938 12.9468L103.165 13.7725L99.3421 24.081Z" fill="white"/>
<path d="M111.048 26.794L117.789 21.6758L119.901 23.0667L110.134 30.2205C107.689 32.0151 105.453 32.1577 103.428 30.6485L104.65 28.7937C105.237 29.2336 105.818 29.4316 106.391 29.3877C106.964 29.3438 107.593 29.0821 108.277 28.6026L108.49 28.4794L110.535 16.8986L112.702 18.3257L111.048 26.794Z" fill="white"/>
<path d="M130.721 36.6651L131.932 35.6798L133.431 37.5218L124.903 44.4608L123.404 42.6187L124.632 41.6195C123.101 41.7123 121.809 41.1106 120.754 39.8143C119.801 38.6431 119.419 37.2909 119.608 35.7577C119.797 34.2244 120.522 32.9443 121.784 31.9174C123.046 30.8904 124.447 30.4404 125.987 30.5673C127.526 30.6942 128.773 31.3433 129.726 32.5145C130.78 33.8108 131.112 35.1943 130.721 36.6651ZM121.946 36.1229C121.851 37.051 122.118 37.9016 122.747 38.6748C123.376 39.448 124.154 39.8823 125.082 39.9777C126.022 40.0638 126.884 39.7876 127.668 39.1492C128.453 38.5109 128.893 37.7276 128.988 36.7996C129.095 35.8623 128.834 35.0071 128.205 34.2339C127.576 33.4606 126.791 33.031 125.852 32.9449C124.924 32.8495 124.068 33.1211 123.283 33.7594C122.51 34.3886 122.064 35.1764 121.946 36.1229Z" fill="white"/>
<path d="M129.016 52.5377L128.016 50.3835L142.577 43.6273L143.577 45.7815L129.016 52.5377Z" fill="white"/>
<path d="M142.504 65.5949L144.038 65.3064L144.477 67.6403L133.672 69.6719L133.233 67.338L134.789 67.0454C133.399 66.3969 132.55 65.2514 132.241 63.609C131.962 62.1251 132.271 60.7543 133.168 59.4968C134.065 58.2392 135.313 57.4601 136.913 57.1594C138.512 56.8587 139.958 57.1313 141.25 57.9771C142.543 58.823 143.329 59.9878 143.608 61.4717C143.917 63.1141 143.549 64.4885 142.504 65.5949ZM135.049 60.933C134.523 61.7033 134.352 62.5782 134.536 63.5579C134.72 64.5375 135.197 65.2906 135.967 65.817C136.752 66.3407 137.641 66.5091 138.635 66.3222C139.63 66.1353 140.39 65.6567 140.916 64.8865C141.457 64.1136 141.635 63.2373 141.451 62.2576C141.267 61.278 140.783 60.5263 139.998 60.0026C139.228 59.4762 138.346 59.3064 137.351 59.4933C136.372 59.6775 135.604 60.1574 135.049 60.933Z" fill="white"/>
<path d="M144.384 79.6267L142.543 79.4717C143.851 80.185 144.436 81.367 144.296 83.0177L141.733 82.8017C141.866 81.9156 141.714 81.1083 141.275 80.3799C140.849 79.6674 140.074 79.2637 138.949 79.169L133.428 78.7039L133.627 76.3375L144.583 77.2603L144.384 79.6267Z" fill="white"/>
</svg>
