<svg width="1553" height="585" viewBox="0 0 1553 585" fill="none" xmlns="http://www.w3.org/2000/svg">
<path d="M41.2617 574.934C41.2617 577.082 42.3077 578.642 44.4509 579.754C50.5613 582.922 65.308 582.594 82.3763 582.215C88.7418 582.074 95.3241 581.925 102.06 581.944L1524.18 581.944C1537.43 581.944 1548.21 576.329 1548.21 569.426L1548.21 15.072C1548.21 8.1648 1537.43 2.55615 1524.18 2.55615L28.8241 2.55622C22.0758 2.55622 15.6084 4.03828 11.067 6.64204C6.60227 9.19141 4.40793 12.4954 4.85447 15.9286L41.2617 574.758C41.2617 574.82 41.2617 574.877 41.2617 574.934ZM1553 15.072L1553 569.426C1553 577.736 1540.07 584.497 1524.18 584.497L102.047 584.497C95.4135 584.482 88.8821 584.623 82.5803 584.765C64.4022 585.17 48.699 585.518 41.1088 581.585C38.0344 579.987 36.478 577.77 36.478 574.987C36.478 574.923 36.478 574.854 36.478 574.785L0.0706538 16.0646C-0.477808 11.9583 2.17563 7.97449 7.55893 4.90162C13.006 1.78797 20.7491 5.94166e-06 28.8241 5.58869e-06L1524.18 -5.97755e-05C1540.07 -6.047e-05 1553 6.75757 1553 15.072Z" fill="white"/>
</svg>
