<svg width="97" height="58" viewBox="0 0 97 58" fill="none" xmlns="http://www.w3.org/2000/svg">
<path d="M0.319336 0.933594V11.9761C0.319336 18.4993 4.01993 22.2939 9.09732 22.2939C12.0663 22.2939 14.0887 21.2706 16.2832 19.1389L16.6275 21.9528H21.3178V0.933594H16.1112V11.6564C16.1112 14.8753 13.9167 17.5613 10.6895 17.5613C7.33313 17.5613 5.56885 15.1311 5.56885 11.9334V0.933594H0.319336ZM41.5417 0.933594L37.6691 10.1428L35.4746 15.9412L33.4521 10.0149L30.2249 0.933594H24.1147L32.5915 21.6117L28.6328 30.7357H34.3988L47.3508 0.933594H41.5417Z" fill="white"/>
<path d="M0.319336 29.3529V34.9064V39.4978V48.8119C0.319336 54.1905 3.40873 56.8579 8.13087 56.6831C9.76379 56.6394 11.0436 56.377 12.5882 55.7648L11.0877 51.217C10.2933 51.6106 9.32239 51.8729 8.48396 51.8729C6.80692 51.8729 5.65942 50.8672 5.65942 48.8119V39.4978H11.7056V34.9064H5.70363V28.7844L0.319336 29.3529Z" fill="white"/>
<path d="M66.5303 26.6255V56.4273H71.7369V26.6255H66.5303Z" fill="white"/>
<path d="M91.4739 38.3067C90.2691 36.2176 87.5582 34.8959 84.7182 34.8959C78.5221 34.8532 73.6597 38.6478 73.6597 45.8958C73.6597 53.2717 78.3069 57.1088 84.5891 57.0662C86.9558 57.0236 90.2691 55.8299 91.4739 53.357L91.7321 56.4267H96.6805V35.4075H91.646L91.4739 38.3067ZM85.1916 39.5431C93.4533 39.5431 93.4533 52.2911 85.1916 52.2911C81.7062 52.2911 78.9094 49.9035 78.9094 45.8958C78.9094 41.8881 81.7062 39.5431 85.1916 39.5431Z" fill="white"/>
<path d="M62.1868 47.8325H57.1606V56.363H62.1868V47.8325Z" fill="white"/>
<path fill-rule="evenodd" clip-rule="evenodd" d="M45.5503 44.8906H40.5247V51.3824V56.3617H45.5503H45.5507C45.5507 52.5376 45.5503 48.7149 45.5503 44.8906Z" fill="white"/>
<path fill-rule="evenodd" clip-rule="evenodd" d="M49.1339 40.2974V35.1094C44.9248 35.9736 41.6098 39.2581 40.7373 43.4288L45.9733 43.4285C46.562 42.0125 47.7046 40.8803 49.1339 40.2974Z" fill="white"/>
<path fill-rule="evenodd" clip-rule="evenodd" d="M62.1872 34.8984H57.1618H50.6101V39.8778H57.1618V46.3695H62.1872V39.8778V34.8984Z" fill="#74D3FF"/>
<path fill-rule="evenodd" clip-rule="evenodd" d="M58.2172 1.35522L49.3632 8.56966C48.9478 8.90819 48.7292 9.36687 48.7292 9.89968V15.2136V21.3408C48.7292 22.3842 49.5906 23.2377 50.6437 23.2377H67.9986C69.0517 23.2377 69.9131 22.3842 69.9131 21.3408V9.89985C69.9131 9.36687 69.6945 8.90819 69.2791 8.56966L60.4251 1.35522C59.7772 0.827231 58.8651 0.827231 58.2172 1.35522Z" fill="#74D3FF"/>
<path fill-rule="evenodd" clip-rule="evenodd" d="M69.0714 1.35522L60.2176 8.56966C59.8022 8.90819 59.5835 9.36687 59.5835 9.89968V15.2136V21.3408C59.5835 22.3842 60.4449 23.2377 61.4979 23.2377H78.853C79.906 23.2377 80.7674 22.3842 80.7674 21.3408V9.89985C80.7674 9.36687 80.5487 8.90819 80.1333 8.56966L71.2795 1.35522C70.6315 0.827231 69.7194 0.827231 69.0714 1.35522Z" fill="#00A0EA"/>
<path fill-rule="evenodd" clip-rule="evenodd" d="M79.9262 1.35522L71.0723 8.56966C70.6569 8.90819 70.4382 9.36687 70.4382 9.89968V15.2136V21.3408C70.4382 22.3842 71.2996 23.2377 72.3527 23.2377H89.7076C90.7607 23.2377 91.622 22.3842 91.622 21.3408V9.89985C91.622 9.36687 91.4035 8.90819 90.9881 8.56966L82.1341 1.35522C81.4862 0.827231 80.5741 0.827231 79.9262 1.35522Z" fill="white"/>
<path d="M31.9246 38.3067C30.7198 36.2176 28.009 34.8959 25.169 34.8959C18.9728 34.8532 14.1104 38.6478 14.1104 45.8958C14.1104 53.2717 18.7576 57.1088 25.0399 57.0662C27.4066 57.0236 30.7198 55.8299 31.9246 53.357L32.1828 56.4267H37.1312V35.4075H32.0967L31.9246 38.3067ZM25.6424 39.5431C33.904 39.5431 33.904 52.2911 25.6424 52.2911C22.157 52.2911 19.3601 49.9035 19.3601 45.8958C19.3601 41.8881 22.157 39.5431 25.6424 39.5431Z" fill="white"/>
</svg>
